<mxfile host="app.diagrams.net" agent="Mozilla/5.0 (Windows NT 10.0; Win64; x64) AppleWebKit/537.36 (KHTML, like Gecko) Chrome/136.0.0.0 Safari/537.36" version="27.1.1">
  <diagram name="Страница — 1" id="dSUuZmmSK2Fet1uXvHbJ">
    <mxGraphModel dx="904" dy="2085" grid="1" gridSize="10" guides="1" tooltips="1" connect="1" arrows="1" fold="1" page="1" pageScale="1" pageWidth="827" pageHeight="1169" math="0" shadow="0">
      <root>
        <mxCell id="0" />
        <mxCell id="1" parent="0" />
        <mxCell id="VxJAB_aPGwrOW1rciI1s-30" style="edgeStyle=orthogonalEdgeStyle;rounded=0;orthogonalLoop=1;jettySize=auto;html=1;" parent="1" source="VxJAB_aPGwrOW1rciI1s-28" target="VxJAB_aPGwrOW1rciI1s-29" edge="1">
          <mxGeometry relative="1" as="geometry" />
        </mxCell>
        <mxCell id="VxJAB_aPGwrOW1rciI1s-28" value="&lt;font style=&quot;background-color: light-dark(#ffffff, var(--ge-dark-color, #121212));&quot;&gt;Начало&lt;/font&gt;&lt;div&gt;&lt;div style=&quot;font-family: Consolas, &amp;quot;Courier New&amp;quot;, monospace; line-height: 19px; white-space: pre;&quot;&gt;&lt;span&gt;&lt;font style=&quot;color: rgb(0, 0, 0);&quot;&gt;void check_bort_valid&lt;/font&gt;&lt;/span&gt;&lt;/div&gt;&lt;div style=&quot;font-family: Consolas, &amp;quot;Courier New&amp;quot;, monospace; line-height: 19px; white-space: pre;&quot;&gt;&lt;span&gt;&lt;font style=&quot;color: rgb(0, 0, 0);&quot;&gt;(const char *bort, int line_num, &lt;/font&gt;&lt;/span&gt;&lt;/div&gt;&lt;div style=&quot;font-family: Consolas, &amp;quot;Courier New&amp;quot;, monospace; line-height: 19px; white-space: pre;&quot;&gt;&lt;span&gt;&lt;font style=&quot;color: rgb(0, 0, 0);&quot;&gt;ErrorInfo *errors, int *error_count)&lt;/font&gt;&lt;/span&gt;&lt;/div&gt;&lt;/div&gt;" style="rounded=1;whiteSpace=wrap;html=1;arcSize=50;fontFamily=Consolas;fontSize=14;" parent="1" vertex="1">
          <mxGeometry x="250" y="110" width="280" height="90" as="geometry" />
        </mxCell>
        <mxCell id="VxJAB_aPGwrOW1rciI1s-32" style="edgeStyle=orthogonalEdgeStyle;rounded=0;orthogonalLoop=1;jettySize=auto;html=1;" parent="1" source="VxJAB_aPGwrOW1rciI1s-29" target="VxJAB_aPGwrOW1rciI1s-31" edge="1">
          <mxGeometry relative="1" as="geometry" />
        </mxCell>
        <mxCell id="VxJAB_aPGwrOW1rciI1s-29" value="&lt;div style=&quot;font-family: Consolas, &amp;quot;Courier New&amp;quot;, monospace; line-height: 19px; white-space: pre;&quot;&gt;&lt;span&gt;&lt;font style=&quot;color: rgb(0, 0, 0);&quot;&gt;Инициализация &lt;/font&gt;&lt;/span&gt;&lt;/div&gt;&lt;div style=&quot;font-family: Consolas, &amp;quot;Courier New&amp;quot;, monospace; line-height: 19px; white-space: pre;&quot;&gt;&lt;span&gt;&lt;font style=&quot;color: rgb(0, 0, 0);&quot;&gt;переменной&lt;/font&gt;&lt;/span&gt;&lt;/div&gt;" style="whiteSpace=wrap;html=1;fontSize=14;fontFamily=Consolas;rounded=1;arcSize=0;" parent="1" vertex="1">
          <mxGeometry x="330" y="225" width="120" height="60" as="geometry" />
        </mxCell>
        <mxCell id="VxJAB_aPGwrOW1rciI1s-34" style="edgeStyle=orthogonalEdgeStyle;rounded=0;orthogonalLoop=1;jettySize=auto;html=1;" parent="1" source="VxJAB_aPGwrOW1rciI1s-31" target="VxJAB_aPGwrOW1rciI1s-33" edge="1">
          <mxGeometry relative="1" as="geometry" />
        </mxCell>
        <mxCell id="VxJAB_aPGwrOW1rciI1s-49" style="edgeStyle=orthogonalEdgeStyle;rounded=0;orthogonalLoop=1;jettySize=auto;html=1;" parent="1" source="VxJAB_aPGwrOW1rciI1s-31" target="VxJAB_aPGwrOW1rciI1s-37" edge="1">
          <mxGeometry relative="1" as="geometry">
            <mxPoint x="530" y="350" as="targetPoint" />
            <Array as="points" />
          </mxGeometry>
        </mxCell>
        <mxCell id="VxJAB_aPGwrOW1rciI1s-31" value="&lt;div style=&quot;font-family: Consolas, &amp;quot;Courier New&amp;quot;, monospace; line-height: 19px; white-space: pre;&quot;&gt;&lt;div style=&quot;line-height: 19px;&quot;&gt;&lt;div style=&quot;line-height: 19px;&quot;&gt;Строка пуста&lt;/div&gt;&lt;/div&gt;&lt;/div&gt;" style="rhombus;whiteSpace=wrap;html=1;rounded=1;strokeColor=default;align=center;verticalAlign=middle;arcSize=0;fontFamily=Consolas;fontSize=14;fontColor=default;fillColor=default;" parent="1" vertex="1">
          <mxGeometry x="314.25" y="312" width="151.5" height="76" as="geometry" />
        </mxCell>
        <mxCell id="VxJAB_aPGwrOW1rciI1s-77" style="edgeStyle=orthogonalEdgeStyle;rounded=0;orthogonalLoop=1;jettySize=auto;html=1;exitX=0.5;exitY=1;exitDx=0;exitDy=0;entryX=0;entryY=0.5;entryDx=0;entryDy=0;" parent="1" source="VxJAB_aPGwrOW1rciI1s-33" target="VxJAB_aPGwrOW1rciI1s-82" edge="1">
          <mxGeometry relative="1" as="geometry">
            <mxPoint x="960" y="540" as="targetPoint" />
            <Array as="points">
              <mxPoint x="390" y="540" />
            </Array>
          </mxGeometry>
        </mxCell>
        <mxCell id="VxJAB_aPGwrOW1rciI1s-33" value="&lt;div style=&quot;font-family: Consolas, &amp;quot;Courier New&amp;quot;, monospace; line-height: 19px; white-space: pre;&quot;&gt;&lt;div style=&quot;&quot;&gt;Добавляем ошибку &lt;/div&gt;&lt;div style=&quot;&quot;&gt;&quot;&lt;span&gt;&lt;font style=&quot;color: rgb(0, 0, 0);&quot;&gt;Пустое поле&lt;/font&gt;&lt;/span&gt;&lt;span style=&quot;background-color: transparent; color: light-dark(rgb(0, 0, 0), rgb(255, 255, 255));&quot;&gt;&quot;&lt;/span&gt;&lt;br&gt;&lt;/div&gt;&lt;/div&gt;" style="whiteSpace=wrap;html=1;fontSize=14;fontFamily=Consolas;rounded=1;arcSize=0;" parent="1" vertex="1">
          <mxGeometry x="310" y="434" width="160" height="70" as="geometry" />
        </mxCell>
        <mxCell id="VxJAB_aPGwrOW1rciI1s-52" style="edgeStyle=orthogonalEdgeStyle;rounded=0;orthogonalLoop=1;jettySize=auto;html=1;" parent="1" source="VxJAB_aPGwrOW1rciI1s-37" target="VxJAB_aPGwrOW1rciI1s-51" edge="1">
          <mxGeometry relative="1" as="geometry" />
        </mxCell>
        <mxCell id="VxJAB_aPGwrOW1rciI1s-62" style="edgeStyle=orthogonalEdgeStyle;rounded=0;orthogonalLoop=1;jettySize=auto;html=1;" parent="1" source="VxJAB_aPGwrOW1rciI1s-37" target="VxJAB_aPGwrOW1rciI1s-58" edge="1">
          <mxGeometry relative="1" as="geometry" />
        </mxCell>
        <mxCell id="VxJAB_aPGwrOW1rciI1s-37" value="&lt;div style=&quot;line-height: 19px; white-space: pre;&quot;&gt;&lt;div style=&quot;line-height: 19px;&quot;&gt;&lt;div style=&quot;line-height: 19px;&quot;&gt;&lt;span style=&quot;white-space-collapse: collapse;&quot;&gt;&lt;font style=&quot;color: rgb(51, 51, 51);&quot; face=&quot;Consolas, Monaco, Andale Mono, Ubuntu Mono, monospace&quot;&gt;Длина &amp;lt;&amp;nbsp;&lt;/font&gt;&lt;/span&gt;&lt;/div&gt;&lt;div style=&quot;line-height: 19px;&quot;&gt;&lt;span style=&quot;white-space-collapse: collapse;&quot;&gt;&lt;font style=&quot;color: rgb(51, 51, 51);&quot; face=&quot;Consolas, Monaco, Andale Mono, Ubuntu Mono, monospace&quot;&gt;EXPECTED_BORT_LEN?&lt;/font&gt;&lt;/span&gt;&lt;/div&gt;&lt;/div&gt;&lt;/div&gt;" style="rhombus;whiteSpace=wrap;html=1;rounded=1;strokeColor=default;align=center;verticalAlign=middle;arcSize=0;fontFamily=Consolas;fontSize=14;fontColor=default;fillColor=default;" parent="1" vertex="1">
          <mxGeometry x="530" y="312" width="151.5" height="76" as="geometry" />
        </mxCell>
        <mxCell id="VxJAB_aPGwrOW1rciI1s-43" value="Нет" style="text;html=1;align=center;verticalAlign=middle;resizable=0;points=[];autosize=1;strokeColor=none;fillColor=none;" parent="1" vertex="1">
          <mxGeometry x="450" y="310" width="40" height="30" as="geometry" />
        </mxCell>
        <mxCell id="VxJAB_aPGwrOW1rciI1s-44" value="Да" style="text;html=1;align=center;verticalAlign=middle;resizable=0;points=[];autosize=1;strokeColor=none;fillColor=none;" parent="1" vertex="1">
          <mxGeometry x="400" y="383" width="40" height="30" as="geometry" />
        </mxCell>
        <mxCell id="VxJAB_aPGwrOW1rciI1s-50" style="edgeStyle=orthogonalEdgeStyle;rounded=0;orthogonalLoop=1;jettySize=auto;html=1;" parent="1" edge="1">
          <mxGeometry relative="1" as="geometry">
            <mxPoint x="1627.29" y="-135.5" as="sourcePoint" />
            <mxPoint x="1627.29" y="-110.5" as="targetPoint" />
          </mxGeometry>
        </mxCell>
        <mxCell id="VxJAB_aPGwrOW1rciI1s-63" style="edgeStyle=orthogonalEdgeStyle;rounded=0;orthogonalLoop=1;jettySize=auto;html=1;" parent="1" source="VxJAB_aPGwrOW1rciI1s-51" target="VxJAB_aPGwrOW1rciI1s-61" edge="1">
          <mxGeometry relative="1" as="geometry" />
        </mxCell>
        <mxCell id="VxJAB_aPGwrOW1rciI1s-75" value="" style="edgeStyle=orthogonalEdgeStyle;rounded=0;orthogonalLoop=1;jettySize=auto;html=1;" parent="1" source="VxJAB_aPGwrOW1rciI1s-51" target="VxJAB_aPGwrOW1rciI1s-74" edge="1">
          <mxGeometry relative="1" as="geometry" />
        </mxCell>
        <mxCell id="VxJAB_aPGwrOW1rciI1s-51" value="&lt;div style=&quot;line-height: 19px; white-space: pre;&quot;&gt;&lt;div style=&quot;line-height: 19px;&quot;&gt;&lt;div style=&quot;line-height: 19px;&quot;&gt;&lt;span style=&quot;color: rgb(51, 51, 51); white-space-collapse: collapse;&quot;&gt;&lt;font style=&quot;&quot; face=&quot;Consolas, Monaco, Andale Mono, Ubuntu Mono, monospace&quot;&gt;Длина &amp;gt;&amp;nbsp;&lt;/font&gt;&lt;/span&gt;&lt;/div&gt;&lt;div style=&quot;line-height: 19px;&quot;&gt;&lt;span style=&quot;color: rgb(51, 51, 51); white-space-collapse: collapse;&quot;&gt;&lt;font style=&quot;&quot; face=&quot;Consolas, Monaco, Andale Mono, Ubuntu Mono, monospace&quot;&gt;EXPECTED_BORT_LEN?&lt;/font&gt;&lt;/span&gt;&lt;/div&gt;&lt;/div&gt;&lt;/div&gt;" style="rhombus;whiteSpace=wrap;html=1;rounded=1;strokeColor=default;align=center;verticalAlign=middle;arcSize=0;fontFamily=Consolas;fontSize=14;fontColor=default;fillColor=default;" parent="1" vertex="1">
          <mxGeometry x="751.54" y="312" width="151.5" height="76" as="geometry" />
        </mxCell>
        <mxCell id="VxJAB_aPGwrOW1rciI1s-53" value="Да" style="text;html=1;align=center;verticalAlign=middle;resizable=0;points=[];autosize=1;strokeColor=none;fillColor=none;" parent="1" vertex="1">
          <mxGeometry x="620" y="385" width="40" height="30" as="geometry" />
        </mxCell>
        <mxCell id="VxJAB_aPGwrOW1rciI1s-54" value="Нет" style="text;html=1;align=center;verticalAlign=middle;resizable=0;points=[];autosize=1;strokeColor=none;fillColor=none;" parent="1" vertex="1">
          <mxGeometry x="670" y="312" width="40" height="30" as="geometry" />
        </mxCell>
        <mxCell id="VxJAB_aPGwrOW1rciI1s-55" value="Да" style="text;html=1;align=center;verticalAlign=middle;resizable=0;points=[];autosize=1;strokeColor=none;fillColor=none;" parent="1" vertex="1">
          <mxGeometry x="850" y="385" width="40" height="30" as="geometry" />
        </mxCell>
        <mxCell id="VxJAB_aPGwrOW1rciI1s-56" value="Нет" style="text;html=1;align=center;verticalAlign=middle;resizable=0;points=[];autosize=1;strokeColor=none;fillColor=none;" parent="1" vertex="1">
          <mxGeometry x="900" y="312" width="40" height="30" as="geometry" />
        </mxCell>
        <mxCell id="VxJAB_aPGwrOW1rciI1s-66" style="edgeStyle=orthogonalEdgeStyle;rounded=0;orthogonalLoop=1;jettySize=auto;html=1;" parent="1" source="VxJAB_aPGwrOW1rciI1s-58" edge="1">
          <mxGeometry relative="1" as="geometry">
            <mxPoint x="605.75" y="540" as="targetPoint" />
          </mxGeometry>
        </mxCell>
        <mxCell id="VxJAB_aPGwrOW1rciI1s-58" value="&lt;div style=&quot;font-family: Consolas, &amp;quot;Courier New&amp;quot;, monospace; line-height: 19px; white-space: pre;&quot;&gt;&lt;div style=&quot;&quot;&gt;Добавляем ошибку &lt;/div&gt;&lt;div style=&quot;&quot;&gt;&quot;Слишком длинный&lt;span style=&quot;background-color: transparent; color: light-dark(rgb(0, 0, 0), rgb(255, 255, 255));&quot;&gt;&quot;&lt;/span&gt;&lt;br&gt;&lt;/div&gt;&lt;/div&gt;" style="whiteSpace=wrap;html=1;fontSize=14;fontFamily=Consolas;rounded=1;arcSize=0;" parent="1" vertex="1">
          <mxGeometry x="525.75" y="434" width="160" height="70" as="geometry" />
        </mxCell>
        <mxCell id="VxJAB_aPGwrOW1rciI1s-67" style="edgeStyle=orthogonalEdgeStyle;rounded=0;orthogonalLoop=1;jettySize=auto;html=1;" parent="1" source="VxJAB_aPGwrOW1rciI1s-61" edge="1">
          <mxGeometry relative="1" as="geometry">
            <mxPoint x="827.29" y="540" as="targetPoint" />
          </mxGeometry>
        </mxCell>
        <mxCell id="VxJAB_aPGwrOW1rciI1s-61" value="&lt;div style=&quot;font-family: Consolas, &amp;quot;Courier New&amp;quot;, monospace; line-height: 19px; white-space: pre;&quot;&gt;&lt;div style=&quot;&quot;&gt;Добавляем ошибку &lt;/div&gt;&lt;div style=&quot;&quot;&gt;&quot;Слишком короткий&lt;span style=&quot;background-color: transparent; color: light-dark(rgb(0, 0, 0), rgb(255, 255, 255));&quot;&gt;&quot;&lt;/span&gt;&lt;br&gt;&lt;/div&gt;&lt;/div&gt;" style="whiteSpace=wrap;html=1;fontSize=14;fontFamily=Consolas;rounded=1;arcSize=0;" parent="1" vertex="1">
          <mxGeometry x="747.29" y="434" width="160" height="70" as="geometry" />
        </mxCell>
        <mxCell id="VxJAB_aPGwrOW1rciI1s-92" style="edgeStyle=orthogonalEdgeStyle;rounded=0;orthogonalLoop=1;jettySize=auto;html=1;" parent="1" source="VxJAB_aPGwrOW1rciI1s-71" target="VxJAB_aPGwrOW1rciI1s-89" edge="1">
          <mxGeometry relative="1" as="geometry" />
        </mxCell>
        <mxCell id="VxJAB_aPGwrOW1rciI1s-93" style="edgeStyle=orthogonalEdgeStyle;rounded=0;orthogonalLoop=1;jettySize=auto;html=1;" parent="1" source="VxJAB_aPGwrOW1rciI1s-71" target="VxJAB_aPGwrOW1rciI1s-72" edge="1">
          <mxGeometry relative="1" as="geometry">
            <Array as="points">
              <mxPoint x="620" y="638" />
              <mxPoint x="620" y="638" />
            </Array>
          </mxGeometry>
        </mxCell>
        <mxCell id="VxJAB_aPGwrOW1rciI1s-71" value="&lt;div style=&quot;line-height: 19px; white-space: pre;&quot;&gt;&lt;div style=&quot;line-height: 19px;&quot;&gt;&lt;div style=&quot;line-height: 19px;&quot;&gt;&lt;div style=&quot;font-family: Consolas, &amp;quot;Courier New&amp;quot;, monospace; line-height: 19px;&quot;&gt;&lt;span&gt;&lt;font style=&quot;color: rgb(0, 0, 0);&quot;&gt;bort[1] != &#39;-&#39;&lt;/font&gt;&lt;/span&gt;&lt;/div&gt;&lt;/div&gt;&lt;/div&gt;&lt;/div&gt;" style="rhombus;whiteSpace=wrap;html=1;rounded=1;strokeColor=default;align=center;verticalAlign=middle;arcSize=0;fontFamily=Consolas;fontSize=14;fontColor=default;fillColor=default;" parent="1" vertex="1">
          <mxGeometry x="360" y="600" width="151.5" height="76" as="geometry" />
        </mxCell>
        <mxCell id="VxJAB_aPGwrOW1rciI1s-91" style="edgeStyle=orthogonalEdgeStyle;rounded=0;orthogonalLoop=1;jettySize=auto;html=1;" parent="1" source="VxJAB_aPGwrOW1rciI1s-72" target="VxJAB_aPGwrOW1rciI1s-90" edge="1">
          <mxGeometry relative="1" as="geometry" />
        </mxCell>
        <mxCell id="VxJAB_aPGwrOW1rciI1s-72" value="&lt;div style=&quot;line-height: 19px; white-space: pre;&quot;&gt;&lt;div style=&quot;line-height: 19px;&quot;&gt;&lt;div style=&quot;line-height: 19px;&quot;&gt;&lt;div style=&quot;font-family: Consolas, &amp;quot;Courier New&amp;quot;, monospace; line-height: 19px;&quot;&gt;&lt;span&gt;&lt;font style=&quot;color: rgb(0, 0, 0);&quot;&gt;Первый символ - &lt;/font&gt;&lt;/span&gt;&lt;/div&gt;&lt;div style=&quot;font-family: Consolas, &amp;quot;Courier New&amp;quot;, monospace; line-height: 19px;&quot;&gt;&lt;span&gt;&lt;font style=&quot;color: rgb(0, 0, 0);&quot;&gt;буква верхнего &lt;/font&gt;&lt;/span&gt;&lt;/div&gt;&lt;div style=&quot;font-family: Consolas, &amp;quot;Courier New&amp;quot;, monospace; line-height: 19px;&quot;&gt;&lt;span&gt;&lt;font style=&quot;color: rgb(0, 0, 0);&quot;&gt;регистра&lt;/font&gt;&lt;/span&gt;&lt;/div&gt;&lt;/div&gt;&lt;/div&gt;&lt;/div&gt;" style="rhombus;whiteSpace=wrap;html=1;rounded=1;strokeColor=default;align=center;verticalAlign=middle;arcSize=0;fontFamily=Consolas;fontSize=14;fontColor=default;fillColor=default;" parent="1" vertex="1">
          <mxGeometry x="554.25" y="600" width="151.5" height="76" as="geometry" />
        </mxCell>
        <mxCell id="VxJAB_aPGwrOW1rciI1s-74" value="1" style="ellipse;whiteSpace=wrap;html=1;fontSize=14;fontFamily=Consolas;rounded=1;arcSize=0;" parent="1" vertex="1">
          <mxGeometry x="940" y="330" width="41.21" height="40" as="geometry" />
        </mxCell>
        <mxCell id="VxJAB_aPGwrOW1rciI1s-82" value="2" style="ellipse;whiteSpace=wrap;html=1;fontSize=14;fontFamily=Consolas;rounded=1;arcSize=0;" parent="1" vertex="1">
          <mxGeometry x="940" y="520" width="41.21" height="40" as="geometry" />
        </mxCell>
        <mxCell id="VxJAB_aPGwrOW1rciI1s-88" style="edgeStyle=orthogonalEdgeStyle;rounded=0;orthogonalLoop=1;jettySize=auto;html=1;" parent="1" source="VxJAB_aPGwrOW1rciI1s-86" target="VxJAB_aPGwrOW1rciI1s-71" edge="1">
          <mxGeometry relative="1" as="geometry" />
        </mxCell>
        <mxCell id="VxJAB_aPGwrOW1rciI1s-86" value="1" style="ellipse;whiteSpace=wrap;html=1;fontSize=14;fontFamily=Consolas;rounded=1;arcSize=0;" parent="1" vertex="1">
          <mxGeometry x="273.03999999999996" y="618" width="41.21" height="40" as="geometry" />
        </mxCell>
        <mxCell id="VxJAB_aPGwrOW1rciI1s-106" style="edgeStyle=orthogonalEdgeStyle;rounded=0;orthogonalLoop=1;jettySize=auto;html=1;" parent="1" source="VxJAB_aPGwrOW1rciI1s-87" edge="1">
          <mxGeometry relative="1" as="geometry">
            <mxPoint x="770" y="828" as="targetPoint" />
            <Array as="points">
              <mxPoint x="770" y="828" />
            </Array>
          </mxGeometry>
        </mxCell>
        <mxCell id="VxJAB_aPGwrOW1rciI1s-87" value="2" style="ellipse;whiteSpace=wrap;html=1;fontSize=14;fontFamily=Consolas;rounded=1;arcSize=0;" parent="1" vertex="1">
          <mxGeometry x="273.03999999999996" y="808" width="41.21" height="40" as="geometry" />
        </mxCell>
        <mxCell id="VxJAB_aPGwrOW1rciI1s-99" style="edgeStyle=orthogonalEdgeStyle;rounded=0;orthogonalLoop=1;jettySize=auto;html=1;" parent="1" source="VxJAB_aPGwrOW1rciI1s-89" edge="1">
          <mxGeometry relative="1" as="geometry">
            <mxPoint x="435.75" y="828" as="targetPoint" />
          </mxGeometry>
        </mxCell>
        <mxCell id="VxJAB_aPGwrOW1rciI1s-89" value="&lt;div style=&quot;font-family: Consolas, &amp;quot;Courier New&amp;quot;, monospace; line-height: 19px; white-space: pre;&quot;&gt;&lt;div style=&quot;&quot;&gt;Добавляем ошибку &lt;/div&gt;&lt;div style=&quot;&quot;&gt;&quot;&lt;font style=&quot;color: rgb(0, 0, 0);&quot;&gt;Первым символом должна &lt;/font&gt;&lt;/div&gt;&lt;div style=&quot;&quot;&gt;&lt;font style=&quot;color: rgb(0, 0, 0);&quot;&gt;быть заглавная буква &lt;/font&gt;&lt;/div&gt;&lt;div style=&quot;&quot;&gt;&lt;font style=&quot;color: rgb(0, 0, 0);&quot;&gt;A-Z&lt;/font&gt;&lt;span style=&quot;background-color: transparent; color: light-dark(rgb(0, 0, 0), rgb(255, 255, 255));&quot;&gt;&quot;&lt;/span&gt;&lt;br&gt;&lt;/div&gt;&lt;/div&gt;" style="whiteSpace=wrap;html=1;fontSize=14;fontFamily=Consolas;rounded=1;arcSize=0;" parent="1" vertex="1">
          <mxGeometry x="355.74999999999994" y="718" width="160" height="70" as="geometry" />
        </mxCell>
        <mxCell id="VxJAB_aPGwrOW1rciI1s-107" style="edgeStyle=orthogonalEdgeStyle;rounded=0;orthogonalLoop=1;jettySize=auto;html=1;" parent="1" source="VxJAB_aPGwrOW1rciI1s-90" edge="1">
          <mxGeometry relative="1" as="geometry">
            <mxPoint x="630" y="830" as="targetPoint" />
          </mxGeometry>
        </mxCell>
        <mxCell id="VxJAB_aPGwrOW1rciI1s-90" value="&lt;div style=&quot;font-family: Consolas, &amp;quot;Courier New&amp;quot;, monospace; line-height: 19px; white-space: pre;&quot;&gt;&lt;div style=&quot;&quot;&gt;Добавляем ошибку &lt;/div&gt;&lt;div style=&quot;&quot;&gt;&quot;&lt;span&gt;&lt;font style=&quot;color: rgb(0, 0, 0);&quot;&gt;Недопустимый символ&quot;&lt;/font&gt;&lt;/span&gt;&lt;/div&gt;&lt;/div&gt;" style="whiteSpace=wrap;html=1;fontSize=14;fontFamily=Consolas;rounded=1;arcSize=0;" parent="1" vertex="1">
          <mxGeometry x="550" y="718" width="160" height="70" as="geometry" />
        </mxCell>
        <mxCell id="VxJAB_aPGwrOW1rciI1s-100" value="Нет" style="text;html=1;align=center;verticalAlign=middle;resizable=0;points=[];autosize=1;strokeColor=none;fillColor=none;" parent="1" vertex="1">
          <mxGeometry x="695" y="590" width="40" height="30" as="geometry" />
        </mxCell>
        <mxCell id="VxJAB_aPGwrOW1rciI1s-101" value="Да" style="text;html=1;align=center;verticalAlign=middle;resizable=0;points=[];autosize=1;strokeColor=none;fillColor=none;" parent="1" vertex="1">
          <mxGeometry x="645" y="663" width="40" height="30" as="geometry" />
        </mxCell>
        <mxCell id="VxJAB_aPGwrOW1rciI1s-102" value="Нет" style="text;html=1;align=center;verticalAlign=middle;resizable=0;points=[];autosize=1;strokeColor=none;fillColor=none;" parent="1" vertex="1">
          <mxGeometry x="514.25" y="590" width="40" height="30" as="geometry" />
        </mxCell>
        <mxCell id="VxJAB_aPGwrOW1rciI1s-103" value="Да" style="text;html=1;align=center;verticalAlign=middle;resizable=0;points=[];autosize=1;strokeColor=none;fillColor=none;" parent="1" vertex="1">
          <mxGeometry x="464.25" y="663" width="40" height="30" as="geometry" />
        </mxCell>
        <mxCell id="VxJAB_aPGwrOW1rciI1s-105" value="" style="edgeStyle=orthogonalEdgeStyle;rounded=0;orthogonalLoop=1;jettySize=auto;html=1;" parent="1" source="VxJAB_aPGwrOW1rciI1s-72" target="VxJAB_aPGwrOW1rciI1s-35" edge="1">
          <mxGeometry relative="1" as="geometry">
            <mxPoint x="760" y="860" as="targetPoint" />
            <mxPoint x="706" y="638" as="sourcePoint" />
          </mxGeometry>
        </mxCell>
        <mxCell id="VxJAB_aPGwrOW1rciI1s-35" value="конец" style="whiteSpace=wrap;html=1;fontSize=14;fontFamily=Consolas;rounded=1;arcSize=50;" parent="1" vertex="1">
          <mxGeometry x="710" y="848" width="120" height="60" as="geometry" />
        </mxCell>
      </root>
    </mxGraphModel>
  </diagram>
</mxfile>
